<svg width="0" height="0" fill="none" style="visibility: hidden; position: absolute;" aria-hidden="true">
    <symbol id="admin-icon" width="22" height="22" viewBox="0 0 22 22" fill="currentColor" xmlns="http://www.w3.org/2000/svg">
        <g clip-path="url(#clip0_368_880__admin-icon)">
            <path d="M11 12.8334V14.6667C9.54127 14.6667 8.14232 15.2462 7.11087 16.2776C6.07942 17.309 5.49996 18.708 5.49996 20.1667H3.66663C3.66663 18.2218 4.43924 16.3565 5.81451 14.9812C7.18978 13.606 9.05504 12.8334 11 12.8334ZM11 11.9167C7.96121 11.9167 5.49996 9.45544 5.49996 6.41669C5.49996 3.37794 7.96121 0.916687 11 0.916687C14.0387 0.916687 16.5 3.37794 16.5 6.41669C16.5 9.45544 14.0387 11.9167 11 11.9167ZM11 10.0834C13.0258 10.0834 14.6666 8.44252 14.6666 6.41669C14.6666 4.39085 13.0258 2.75002 11 2.75002C8.97413 2.75002 7.33329 4.39085 7.33329 6.41669C7.33329 8.44252 8.97413 10.0834 11 10.0834ZM19.25 15.5834H20.1666V20.1667H12.8333V15.5834H13.75V14.6667C13.75 13.9373 14.0397 13.2379 14.5554 12.7221C15.0711 12.2064 15.7706 11.9167 16.5 11.9167C17.2293 11.9167 17.9288 12.2064 18.4445 12.7221C18.9602 13.2379 19.25 13.9373 19.25 14.6667V15.5834ZM17.4166 15.5834V14.6667C17.4166 14.4236 17.3201 14.1904 17.1481 14.0185C16.9762 13.8466 16.7431 13.75 16.5 13.75C16.2568 13.75 16.0237 13.8466 15.8518 14.0185C15.6799 14.1904 15.5833 14.4236 15.5833 14.6667V15.5834H17.4166Z"/>
        </g>
        <defs>
            <clipPath id="clip0_368_880__admin-icon">
                <rect width="22" height="22" fill="white"/>
            </clipPath>
        </defs>
    </symbol>
    <symbol id="archive-icon" width="20" height="19" viewBox="0 0 20 19" fill="currentCollor" xmlns="http://www.w3.org/2000/svg">
        <path d="M1 7.3614H0V1.35514C0 0.800281 0.455 0.350588 0.992 0.350588H19.008C19.1393 0.350311 19.2693 0.376187 19.3905 0.426709C19.5117 0.477232 19.6217 0.551392 19.714 0.644875C19.8063 0.738357 19.8791 0.849294 19.9282 0.971231C19.9773 1.09317 20.0017 1.22367 20 1.35514V7.3614H19V17.3778C19.0004 17.5088 18.975 17.6386 18.9253 17.7598C18.8756 17.881 18.8026 17.9912 18.7104 18.0841C18.6182 18.177 18.5086 18.2508 18.3879 18.3013C18.2672 18.3518 18.1378 18.378 18.007 18.3784H1.993C1.8622 18.378 1.73277 18.3518 1.61208 18.3013C1.49139 18.2508 1.38181 18.177 1.2896 18.0841C1.19739 17.9912 1.12436 17.881 1.07467 17.7598C1.02498 17.6386 0.999606 17.5088 1 17.3778V7.3614ZM17 7.3614H3V16.3753H17V7.3614ZM2 2.35368V5.35831H18V2.35368H2ZM7 9.36449H13V11.3676H7V9.36449Z" fill="currentCollor"/>
    </symbol>
    <symbol id="arrow-down-icon" width="12" height="8" viewBox="0 0 12 8" fill="none" xmlns="http://www.w3.org/2000/svg">
        <path d="M6.00012 4.78522L10.1251 0.775055L11.3035 1.92058L6.00012 7.07627L0.696777 1.92058L1.87511 0.775055L6.00012 4.78522Z" fill="currentColor"/>
    </symbol>
    <symbol id="bond-icon" width="19" height="18" viewBox="0 0 19 18" fill="none" xmlns="http://www.w3.org/2000/svg">
        <path d="M16 0C17.657 0 19 1.343 19 3C19 4.657 17.657 6 16 6H13C11.694 6 10.583 5.166 10.171 4H9C7.9 4 7 4.9 7 6V6.171C8.166 6.583 9 7.694 9 9C9 10.306 8.166 11.417 7 11.829V12C7 13.1 7.9 14 9 14H10.17C10.582 12.835 11.694 12 13 12H16C17.657 12 19 13.343 19 15C19 16.657 17.657 18 16 18H13C11.694 18 10.583 17.166 10.171 16H9C6.79 16 5 14.21 5 12H3C1.343 12 0 10.657 0 9C0 7.343 1.343 6 3 6H5C5 3.79 6.79 2 9 2H10.17C10.582 0.835 11.694 0 13 0H16ZM16 14H13C12.448 14 12 14.448 12 15C12 15.552 12.448 16 13 16H16C16.552 16 17 15.552 17 15C17 14.448 16.552 14 16 14ZM6 8H3C2.448 8 2 8.448 2 9C2 9.552 2.448 10 3 10H6C6.552 10 7 9.552 7 9C7 8.448 6.552 8 6 8ZM16 2H13C12.448 2 12 2.448 12 3C12 3.552 12.448 4 13 4H16C16.552 4 17 3.552 17 3C17 2.448 16.552 2 16 2Z" fill="currentColor"/>
    </symbol>
    <symbol id="bubbles-icon" width="18" height="21" viewBox="0 0 18 21" fill="currentCollor" xmlns="http://www.w3.org/2000/svg">
        <path d="M14 14.3706C15.657 14.3706 17 15.7157 17 17.3753C17 19.0348 15.657 20.3799 14 20.3799C12.343 20.3799 11 19.0348 11 17.3753C11 15.7157 12.343 14.3706 14 14.3706ZM4 10.3644C6.21 10.3644 8 12.1572 8 14.3706C8 16.584 6.21 18.3768 4 18.3768C1.79 18.3768 0 16.584 0 14.3706C0 12.1572 1.79 10.3644 4 10.3644ZM14 16.3737C13.448 16.3737 13 16.8224 13 17.3753C13 17.9281 13.448 18.3768 14 18.3768C14.552 18.3768 15 17.9281 15 17.3753C15 16.8224 14.552 16.3737 14 16.3737ZM4 12.3675C2.895 12.3675 2 13.2639 2 14.3706C2 15.4773 2.895 16.3737 4 16.3737C5.105 16.3737 6 15.4773 6 14.3706C6 13.2639 5.105 12.3675 4 12.3675ZM12.5 0.348999C15.538 0.348999 18 2.8148 18 5.85749C18 8.90018 15.538 11.366 12.5 11.366C9.462 11.366 7 8.90018 7 5.85749C7 2.8148 9.462 0.348999 12.5 0.348999ZM12.5 2.35209C10.567 2.35209 9 3.92151 9 5.85749C9 7.79348 10.567 9.3629 12.5 9.3629C14.433 9.3629 16 7.79348 16 5.85749C16 3.92151 14.433 2.35209 12.5 2.35209Z" fill="currentColor"/>
    </symbol>
    <symbol id="chart-icon" width="20" height="18" viewBox="0 0 20 18" fill="none" xmlns="http://www.w3.org/2000/svg">
        <path d="M0 9.98378H6V17.7243H0V9.98378ZM14 5.14594H20V17.7243H14V5.14594ZM7 0.308105H13V17.7243H7V0.308105ZM2 11.9189V15.7892H4V11.9189H2ZM9 2.24324V15.7892H11V2.24324H9ZM16 7.08108V15.7892H18V7.08108H16Z" fill="currentColor"/>
    </symbol>
    <symbol id="check-icon" width="15" height="11" viewBox="0 0 15 11" fill="none" xmlns="http://www.w3.org/2000/svg">
        <path d="M5.33361 8.64325L12.9936 0.982422L14.1728 2.16076L5.33361 10.9999L0.0302734 5.69659L1.20861 4.51826L5.33361 8.64325Z" fill="currentColor"/>
    </symbol>
    <symbol id="clock-icon" width="20" height="21" viewBox="0 0 20 21" fill="none" xmlns="http://www.w3.org/2000/svg">
        <path d="M10 20.0316C4.477 20.0316 0 15.6752 0 10.3009C0 4.92663 4.477 0.57019 10 0.57019C15.523 0.57019 20 4.92663 20 10.3009C20 15.6752 15.523 20.0316 10 20.0316ZM10 18.0855C12.1217 18.0855 14.1566 17.2653 15.6569 15.8054C17.1571 14.3455 18 12.3655 18 10.3009C18 8.23631 17.1571 6.25627 15.6569 4.79638C14.1566 3.33649 12.1217 2.51633 10 2.51633C7.87827 2.51633 5.84344 3.33649 4.34315 4.79638C2.84285 6.25627 2 8.23631 2 10.3009C2 12.3655 2.84285 14.3455 4.34315 15.8054C5.84344 17.2653 7.87827 18.0855 10 18.0855ZM11 10.3009H15V12.247H9V5.43555H11V10.3009Z" fill="currentColor"/>
    </symbol>
    <symbol id="connections-icon" width="22" height="22" viewBox="0 0 22 22" xmlns="http://www.w3.org/2000/svg">
        <g clip-path="url(#clip0_368_875__connections-icon)">
            <path d="M11.9717 7.43415L13.2687 8.73124C13.8647 9.32709 14.3374 10.0345 14.6599 10.813C14.9824 11.5916 15.1484 12.426 15.1484 13.2687C15.1484 14.1114 14.9824 14.9459 14.6599 15.7244C14.3374 16.503 13.8647 17.2104 13.2687 17.8062L12.9442 18.1298C11.7408 19.3332 10.1086 20.0093 8.40674 20.0093C6.70485 20.0093 5.07266 19.3332 3.86924 18.1298C2.66582 16.9264 1.98975 15.2942 1.98975 13.5923C1.98975 11.8904 2.66582 10.2582 3.86924 9.05482L5.16632 10.3519C4.73766 10.7768 4.39715 11.2822 4.16434 11.8391C3.93153 12.396 3.811 12.9934 3.80968 13.5969C3.80836 14.2005 3.92627 14.7984 4.15664 15.3563C4.38701 15.9142 4.7253 16.4211 5.1521 16.8479C5.5789 17.2747 6.08579 17.613 6.64368 17.8433C7.20157 18.0737 7.79946 18.1916 8.40304 18.1903C9.00662 18.189 9.604 18.0684 10.1609 17.8356C10.7177 17.6028 11.2232 17.2623 11.6481 16.8337L11.9726 16.5092C12.8318 15.6497 13.3145 14.4841 13.3145 13.2687C13.3145 12.0534 12.8318 10.8878 11.9726 10.0283L10.6755 8.73124L11.9726 7.43507L11.9717 7.43415ZM18.1298 12.9442L16.8337 11.6481C17.2623 11.2231 17.6028 10.7177 17.8356 10.1609C18.0685 9.60399 18.189 9.00662 18.1903 8.40304C18.1916 7.79946 18.0737 7.20156 17.8433 6.64367C17.613 6.08579 17.2747 5.57889 16.8479 5.1521C16.4211 4.7253 15.9142 4.38701 15.3563 4.15664C14.7984 3.92627 14.2005 3.80836 13.5969 3.80968C12.9934 3.811 12.396 3.93153 11.8391 4.16434C11.2822 4.39715 10.7768 4.73766 10.3519 5.16632L10.0274 5.49082C9.16816 6.35032 8.68547 7.5159 8.68547 8.73124C8.68547 9.94657 9.16816 11.1122 10.0274 11.9717L11.3245 13.2687L10.0274 14.5649L8.73124 13.2687C8.13533 12.6729 7.66262 11.9655 7.34011 11.1869C7.0176 10.4084 6.85161 9.57394 6.85161 8.73124C6.85161 7.88853 7.0176 7.05408 7.34011 6.27554C7.66262 5.49699 8.13533 4.78959 8.73124 4.19374L9.05574 3.87016C10.2592 2.66674 11.8913 1.99066 13.5932 1.99066C15.2951 1.99066 16.9273 2.66674 18.1307 3.87016C19.3342 5.07358 20.0102 6.70576 20.0102 8.40765C20.0102 10.1095 19.3342 11.7417 18.1307 12.9452L18.1298 12.9442Z"/>
        </g>
        <defs>
            <clipPath id="clip0_368_875__connections-icon">
                <rect width="22" height="22"/>
            </clipPath>
        </defs>
    </symbol>
    <symbol id="cross-icon-icon" width="10" height="10" viewBox="0 0 10 10" fill="none" xmlns="http://www.w3.org/2000/svg">
        <path d="M4.99972 4.01041L8.46472 0.54541L9.45452 1.53521L5.98952 5.00021L9.45452 8.46521L8.46472 9.45501L4.99972 5.99001L1.53472 9.45501L0.544922 8.46521L4.00992 5.00021L0.544922 1.53521L1.53472 0.54541L4.99972 4.01041Z" fill="currentColor"/>
    </symbol>
    <symbol id="dashboard-icon" width="22" height="23" viewBox="0 0 22 23" fill="currentColor" xmlns="http://www.w3.org/2000/svg">
        <g clip-path="url(#clip0_3299_194__dashboard-icon)">
            <path d="M10.9987 1.92285C16.0614 1.92285 20.1654 6.02677 20.1654 11.0895C20.1654 16.1523 16.0614 20.2562 10.9987 20.2562C5.93595 20.2562 1.83203 16.1523 1.83203 11.0895C1.83203 6.02677 5.93595 1.92285 10.9987 1.92285ZM10.9987 3.75618C6.94886 3.75618 3.66536 7.03968 3.66536 11.0895C3.66536 15.1394 6.94886 18.4229 10.9987 18.4229C15.0485 18.4229 18.332 15.1394 18.332 11.0895C18.332 7.03968 15.0485 3.75618 10.9987 3.75618ZM10.9987 4.67285C11.9319 4.67285 12.8183 4.87177 13.6185 5.23018L12.1858 6.66202C11.8072 6.56118 11.4094 6.50618 10.9987 6.50618C8.46778 6.50618 6.41536 8.5586 6.41536 11.0895C6.41536 12.3545 6.9287 13.5004 7.75736 14.3309L6.4612 15.627L6.3182 15.4794C5.24203 14.3318 4.58203 12.7872 4.58203 11.0895C4.58203 7.54568 7.45486 4.67285 10.9987 4.67285ZM16.858 8.4706C17.2155 9.26993 17.4154 10.1573 17.4154 11.0895C17.4154 12.8614 16.6967 14.4656 15.5362 15.627L14.24 14.3309C15.0687 13.5004 15.582 12.3545 15.582 11.0895C15.582 10.6789 15.5279 10.281 15.4262 9.90243L16.858 8.4706ZM14.8872 5.90393L16.1843 7.2001L12.7706 10.6156C12.8109 10.7669 12.832 10.9254 12.832 11.0895C12.832 12.1024 12.0116 12.9229 10.9987 12.9229C9.98578 12.9229 9.16536 12.1024 9.16536 11.0895C9.16536 10.0766 9.98578 9.25618 10.9987 9.25618C11.1628 9.25618 11.3214 9.27727 11.4726 9.3176L14.8881 5.90393H14.8872Z"/>
        </g>
        <defs>
            <clipPath id="clip0_3299_194__dashboard-icon">
                <rect width="22" height="22" fill="white" transform="translate(0 0.0893555)"/>
            </clipPath>
        </defs>
    </symbol>
    <symbol id="dots-icon" width="19" height="4" viewBox="0 0 19 4" fill="none" xmlns="http://www.w3.org/2000/svg">
        <path id="Vector__dots-icon" d="M0 1.64215C0 2.46658 0.680736 3.14111 1.51275 3.14111C2.34476 3.14111 3.02549 2.46658 3.02549 1.64215C3.02549 0.817722 2.34476 0.143188 1.51275 0.143188C0.680736 0.143188 0 0.817722 0 1.64215ZM15.1275 1.64215C15.1275 2.46658 15.8082 3.14111 16.6402 3.14111C17.4722 3.14111 18.153 2.46658 18.153 1.64215C18.153 0.817722 17.4722 0.143188 16.6402 0.143188C15.8082 0.143188 15.1275 0.817722 15.1275 1.64215ZM7.56373 1.64215C7.56373 2.46658 8.24447 3.14111 9.07648 3.14111C9.90849 3.14111 10.5892 2.46658 10.5892 1.64215C10.5892 0.817722 9.90849 0.143188 9.07648 0.143188C8.24447 0.143188 7.56373 0.817722 7.56373 1.64215Z" fill="currentColor"/>
    </symbol>
    <symbol id="manage-icon" width="22" height="22" viewBox="0 0 22 22" fill="none" xmlns="http://www.w3.org/2000/svg">
        <g clip-path="url(#clip0_368_865__manage-icon)">
            <path d="M2.75 15.5833H19.25V17.4166H2.75V15.5833ZM2.75 10.0833H5.5V12.8333H2.75V10.0833ZM7.33333 10.0833H10.0833V12.8333H7.33333V10.0833ZM2.75 4.58331H5.5V7.33331H2.75V4.58331ZM11.9167 4.58331H14.6667V7.33331H11.9167V4.58331ZM16.5 4.58331H19.25V7.33331H16.5V4.58331ZM11.9167 10.0833H14.6667V12.8333H11.9167V10.0833ZM16.5 10.0833H19.25V12.8333H16.5V10.0833ZM7.33333 4.58331H10.0833V7.33331H7.33333V4.58331Z" fill="currentColor"/>
        </g>
        <defs>
            <clipPath id="clip0_368_865__manage-icon">
                <rect width="22" height="22" fill="white"/>
            </clipPath>
        </defs>
    </symbol>
    <symbol id="monitor-icon" width="22" height="22" viewBox="0 0 22 22" fill="none" xmlns="http://www.w3.org/2000/svg">
        <g clip-path="url(#clip0_368_870__monitor-icon)">
            <path d="M11 18.3333C12.945 18.3333 14.8102 17.5607 16.1855 16.1854C17.5608 14.8102 18.3334 12.9449 18.3334 11C18.3334 9.05506 17.5608 7.1898 16.1855 5.81453C14.8102 4.43926 12.945 3.66665 11 3.66665C9.05512 3.66665 7.18986 4.43926 5.81459 5.81453C4.43932 7.1898 3.66671 9.05506 3.66671 11C3.66671 12.9449 4.43932 14.8102 5.81459 16.1854C7.18986 17.5607 9.05512 18.3333 11 18.3333ZM11 20.1666C5.93729 20.1666 1.83337 16.0627 1.83337 11C1.83337 5.93723 5.93729 1.83331 11 1.83331C16.0628 1.83331 20.1667 5.93723 20.1667 11C20.1667 16.0627 16.0628 20.1666 11 20.1666ZM11 14.6666C11.9725 14.6666 12.9051 14.2803 13.5928 13.5927C14.2804 12.9051 14.6667 11.9724 14.6667 11C14.6667 10.0275 14.2804 9.09489 13.5928 8.40725C12.9051 7.71962 11.9725 7.33331 11 7.33331C10.0276 7.33331 9.09495 7.71962 8.40732 8.40725C7.71968 9.09489 7.33337 10.0275 7.33337 11C7.33337 11.9724 7.71968 12.9051 8.40732 13.5927C9.09495 14.2803 10.0276 14.6666 11 14.6666ZM11 16.5C9.54135 16.5 8.1424 15.9205 7.11095 14.8891C6.0795 13.8576 5.50004 12.4587 5.50004 11C5.50004 9.54129 6.0795 8.14234 7.11095 7.11089C8.1424 6.07944 9.54135 5.49998 11 5.49998C12.4587 5.49998 13.8577 6.07944 14.8891 7.11089C15.9206 8.14234 16.5 9.54129 16.5 11C16.5 12.4587 15.9206 13.8576 14.8891 14.8891C13.8577 15.9205 12.4587 16.5 11 16.5ZM11 12.8333C10.5138 12.8333 10.0475 12.6402 9.70368 12.2963C9.35986 11.9525 9.16671 11.4862 9.16671 11C9.16671 10.5137 9.35986 10.0474 9.70368 9.70362C10.0475 9.3598 10.5138 9.16665 11 9.16665C11.4863 9.16665 11.9526 9.3598 12.2964 9.70362C12.6402 10.0474 12.8334 10.5137 12.8334 11C12.8334 11.4862 12.6402 11.9525 12.2964 12.2963C11.9526 12.6402 11.4863 12.8333 11 12.8333Z" fill="currentColor"/>
        </g>
        <defs>
            <clipPath id="clip0_368_870__monitor-icon">
                <rect width="22" height="22" fill="white"/>
            </clipPath>
        </defs>
    </symbol>
    <symbol id="moon-icon" width="18" height="18" viewBox="0 0 18 18" fill="none" xmlns="http://www.w3.org/2000/svg">
        <path d="M16.9414 12.275C16.8081 12.05 16.4331 11.7 15.4998 11.8667C14.9831 11.9583 14.4581 12 13.9331 11.975C11.9914 11.8917 10.2331 11 9.00809 9.625C7.92476 8.41666 7.25809 6.84166 7.24976 5.14166C7.24976 4.19166 7.43309 3.275 7.80809 2.40833C8.17476 1.56666 7.91642 1.125 7.73309 0.941662C7.54142 0.749995 7.09142 0.483329 6.20809 0.849995C2.79976 2.28333 0.691424 5.7 0.941424 9.35833C1.19142 12.8 3.60809 15.7417 6.80809 16.85C7.57476 17.1167 8.38309 17.275 9.21642 17.3083C9.34976 17.3167 9.48309 17.325 9.61642 17.325C12.4081 17.325 15.0248 16.0083 16.6748 13.7667C17.2331 12.9917 17.0831 12.5 16.9414 12.275Z" fill="white"/>
    </symbol>
    <symbol id="pencil-icon" width="10" height="10" viewBox="0 0 10 10" xmlns="http://www.w3.org/2000/svg">
        <path d="M7.08261 3.70423L6.29577 2.91739L1.11292 8.10025V8.88708H1.89975L7.08261 3.70423ZM7.86944 2.91739L8.65627 2.13056L7.86944 1.34373L7.08261 2.13056L7.86944 2.91739ZM2.3605 10H0V7.63895L7.47602 0.162924C7.58037 0.0586037 7.72189 0 7.86944 0C8.01699 0 8.1585 0.0586037 8.26285 0.162924L9.83708 1.73715C9.9414 1.8415 10 1.98301 10 2.13056C10 2.27811 9.9414 2.41963 9.83708 2.52398L2.3605 10Z" fill="currentColor"/>
    </symbol>
    <symbol id="plus-icon" width="20" height="20" viewBox="0 0 20 20" fill="currentColor" xmlns="http://www.w3.org/2000/svg">
        <path d="M9 9V5H11V9H15V11H11V15H9V11H5V9H9ZM10 20C4.477 20 0 15.523 0 10C0 4.477 4.477 0 10 0C15.523 0 20 4.477 20 10C20 15.523 15.523 20 10 20ZM10 18C12.1217 18 14.1566 17.1571 15.6569 15.6569C17.1571 14.1566 18 12.1217 18 10C18 7.87827 17.1571 5.84344 15.6569 4.34315C14.1566 2.84285 12.1217 2 10 2C7.87827 2 5.84344 2.84285 4.34315 4.34315C2.84285 5.84344 2 7.87827 2 10C2 12.1217 2.84285 14.1566 4.34315 15.6569C5.84344 17.1571 7.87827 18 10 18Z" fill="currentColor"/>
    </symbol>
    <symbol id="search-icon" width="20" height="20" viewBox="0 0 20 20" fill="none" xmlns="http://www.w3.org/2000/svg">
        <g clip-path="url(#clip0_433_451__search-icon)">
            <path d="M15.0257 13.8475L18.5948 17.4158L17.4157 18.595L13.8473 15.0258C12.5196 16.0902 10.8682 16.6691 9.1665 16.6667C5.0265 16.6667 1.6665 13.3067 1.6665 9.16666C1.6665 5.02666 5.0265 1.66666 9.1665 1.66666C13.3065 1.66666 16.6665 5.02666 16.6665 9.16666C16.6689 10.8683 16.09 12.5198 15.0257 13.8475ZM13.354 13.2292C14.4116 12.1416 15.0022 10.6837 14.9998 9.16666C14.9998 5.94332 12.389 3.33332 9.1665 3.33332C5.94317 3.33332 3.33317 5.94332 3.33317 9.16666C3.33317 12.3892 5.94317 15 9.1665 15C10.6835 15.0024 12.1414 14.4117 13.229 13.3542L13.354 13.2292Z" fill="currentColor"/>
        </g>
        <defs>
            <clipPath id="clip0_433_451__search-icon">
                <rect width="20" height="20" fill="currentColor"/>
            </clipPath>
        </defs>
    </symbol>
    <symbol id="sort-icon" width="10" height="14" viewBox="0 0 10 14" fill="none" xmlns="http://www.w3.org/2000/svg">
        <path d="M5 13.5133L0 8.47079H10L5 13.5133Z" fill="currentColor"/>
        <path d="M5 0.0666504L0 5.10915H10L5 0.0666504Z" fill="currentColor"/>
    </symbol>
    <symbol id="sun-icon" width="20" height="20" viewBox="0 0 20 20" fill="none" xmlns="http://www.w3.org/2000/svg">
        <path d="M9.99984 15.8334C13.2215 15.8334 15.8332 13.2217 15.8332 10C15.8332 6.77836 13.2215 4.16669 9.99984 4.16669C6.77818 4.16669 4.1665 6.77836 4.1665 10C4.1665 13.2217 6.77818 15.8334 9.99984 15.8334Z" fill="#F7DA47"/>
        <path d="M10.0002 19.1333C9.54183 19.1333 9.16683 18.7916 9.16683 18.3333V18.2666C9.16683 17.8083 9.54183 17.4333 10.0002 17.4333C10.4585 17.4333 10.8335 17.8083 10.8335 18.2666C10.8335 18.725 10.4585 19.1333 10.0002 19.1333ZM15.9502 16.7833C15.7335 16.7833 15.5252 16.7 15.3585 16.5416L15.2502 16.4333C14.9252 16.1083 14.9252 15.5833 15.2502 15.2583C15.5752 14.9333 16.1002 14.9333 16.4252 15.2583L16.5335 15.3666C16.8585 15.6916 16.8585 16.2166 16.5335 16.5416C16.3752 16.7 16.1668 16.7833 15.9502 16.7833ZM4.05016 16.7833C3.8335 16.7833 3.62516 16.7 3.4585 16.5416C3.1335 16.2166 3.1335 15.6916 3.4585 15.3666L3.56683 15.2583C3.89183 14.9333 4.41683 14.9333 4.74183 15.2583C5.06683 15.5833 5.06683 16.1083 4.74183 16.4333L4.6335 16.5416C4.47516 16.7 4.2585 16.7833 4.05016 16.7833ZM18.3335 10.8333H18.2668C17.8085 10.8333 17.4335 10.4583 17.4335 9.99998C17.4335 9.54165 17.8085 9.16665 18.2668 9.16665C18.7252 9.16665 19.1335 9.54165 19.1335 9.99998C19.1335 10.4583 18.7918 10.8333 18.3335 10.8333ZM1.7335 10.8333H1.66683C1.2085 10.8333 0.833496 10.4583 0.833496 9.99998C0.833496 9.54165 1.2085 9.16665 1.66683 9.16665C2.12516 9.16665 2.5335 9.54165 2.5335 9.99998C2.5335 10.4583 2.19183 10.8333 1.7335 10.8333ZM15.8418 4.99165C15.6252 4.99165 15.4168 4.90831 15.2502 4.74998C14.9252 4.42498 14.9252 3.89998 15.2502 3.57498L15.3585 3.46665C15.6835 3.14165 16.2085 3.14165 16.5335 3.46665C16.8585 3.79165 16.8585 4.31665 16.5335 4.64165L16.4252 4.74998C16.2668 4.90831 16.0585 4.99165 15.8418 4.99165ZM4.1585 4.99165C3.94183 4.99165 3.7335 4.90831 3.56683 4.74998L3.4585 4.63331C3.1335 4.30831 3.1335 3.78331 3.4585 3.45831C3.7835 3.13331 4.3085 3.13331 4.6335 3.45831L4.74183 3.56665C5.06683 3.89165 5.06683 4.41665 4.74183 4.74165C4.5835 4.90831 4.36683 4.99165 4.1585 4.99165ZM10.0002 2.53331C9.54183 2.53331 9.16683 2.19165 9.16683 1.73331V1.66665C9.16683 1.20831 9.54183 0.833313 10.0002 0.833313C10.4585 0.833313 10.8335 1.20831 10.8335 1.66665C10.8335 2.12498 10.4585 2.53331 10.0002 2.53331Z" fill="#F7DA47"/>
    </symbol>
    <symbol id="user-dropdown-arrow-icon" width="30" height="11" viewBox="0 0 30 11" fill="none" xmlns="http://www.w3.org/2000/svg">
        <g clip-path="url(#clip0_7_2__user-dropdown-arrow-icon)">
            <path d="M-145 14.2537C-145 10.9397 -142.314 8.25366 -139 8.25366H2.85599C4.82499 8.25366 6.669 7.28766 7.789 5.66866L9.92499 2.58466C12.349 -0.917337 17.549 -0.848341 19.88 2.71666L21.724 5.53666C22.832 7.23166 24.721 8.25366 26.746 8.25366H35C38.314 8.25366 41 10.9397 41 14.2537V238.254C41 241.568 38.314 244.254 35 244.254H-139C-142.314 244.254 -145 241.568 -145 238.254V14.2537Z" fill="#0F9D58"/>
            <path d="M-139 11.2537C-142.314 11.2537 -145 13.9397 -145 17.2537V241.254C-145 244.568 -142.314 247.254 -139 247.254H35C38.314 247.254 41 244.568 41 241.254V17.2537C41 13.9397 38.314 11.2537 35 11.2537H26.746C24.721 11.2537 22.832 10.2317 21.724 8.53666L19.88 5.71666C17.549 2.15166 12.349 2.08266 9.92499 5.58466L7.789 8.66866C6.66901 10.2877 4.82498 11.2537 2.85599 11.2537H-139Z" fill="currentColor"/>
        </g>
        <defs>
            <clipPath id="clip0_7_2__user-dropdown-arrow-icon">
                <rect width="30" height="11" fill="white"/>
            </clipPath>
        </defs>
    </symbol>
</svg>