<svg width="22" height="23" viewBox="0 0 22 23" xmlns="http://www.w3.org/2000/svg">
<g clip-path="url(#clip0_3299_194)">
<path d="M10.9987 1.92285C16.0614 1.92285 20.1654 6.02677 20.1654 11.0895C20.1654 16.1523 16.0614 20.2562 10.9987 20.2562C5.93595 20.2562 1.83203 16.1523 1.83203 11.0895C1.83203 6.02677 5.93595 1.92285 10.9987 1.92285ZM10.9987 3.75618C6.94886 3.75618 3.66536 7.03968 3.66536 11.0895C3.66536 15.1394 6.94886 18.4229 10.9987 18.4229C15.0485 18.4229 18.332 15.1394 18.332 11.0895C18.332 7.03968 15.0485 3.75618 10.9987 3.75618ZM10.9987 4.67285C11.9319 4.67285 12.8183 4.87177 13.6185 5.23018L12.1858 6.66202C11.8072 6.56118 11.4094 6.50618 10.9987 6.50618C8.46778 6.50618 6.41536 8.5586 6.41536 11.0895C6.41536 12.3545 6.9287 13.5004 7.75736 14.3309L6.4612 15.627L6.3182 15.4794C5.24203 14.3318 4.58203 12.7872 4.58203 11.0895C4.58203 7.54568 7.45486 4.67285 10.9987 4.67285ZM16.858 8.4706C17.2155 9.26993 17.4154 10.1573 17.4154 11.0895C17.4154 12.8614 16.6967 14.4656 15.5362 15.627L14.24 14.3309C15.0687 13.5004 15.582 12.3545 15.582 11.0895C15.582 10.6789 15.5279 10.281 15.4262 9.90243L16.858 8.4706ZM14.8872 5.90393L16.1843 7.2001L12.7706 10.6156C12.8109 10.7669 12.832 10.9254 12.832 11.0895C12.832 12.1024 12.0116 12.9229 10.9987 12.9229C9.98578 12.9229 9.16536 12.1024 9.16536 11.0895C9.16536 10.0766 9.98578 9.25618 10.9987 9.25618C11.1628 9.25618 11.3214 9.27727 11.4726 9.3176L14.8881 5.90393H14.8872Z" />
</g>
<defs>
<clipPath id="clip0_3299_194">
<rect width="22" height="22" transform="translate(0 0.0893555)"/>
</clipPath>
</defs>
</svg>
