<svg width="0" height="0" fill="none" style="visibility: hidden; position: absolute;" aria-hidden="true">
    <symbol id="admin" width="22" height="22" viewBox="0 0 22 22" xmlns="http://www.w3.org/2000/svg">
        <g clip-path="url(#clip0_368_880__admin)">
            <path d="M11 12.8334V14.6667C9.54127 14.6667 8.14232 15.2462 7.11087 16.2776C6.07942 17.309 5.49996 18.708 5.49996 20.1667H3.66663C3.66663 18.2218 4.43924 16.3565 5.81451 14.9812C7.18978 13.606 9.05504 12.8334 11 12.8334ZM11 11.9167C7.96121 11.9167 5.49996 9.45544 5.49996 6.41669C5.49996 3.37794 7.96121 0.916687 11 0.916687C14.0387 0.916687 16.5 3.37794 16.5 6.41669C16.5 9.45544 14.0387 11.9167 11 11.9167ZM11 10.0834C13.0258 10.0834 14.6666 8.44252 14.6666 6.41669C14.6666 4.39085 13.0258 2.75002 11 2.75002C8.97413 2.75002 7.33329 4.39085 7.33329 6.41669C7.33329 8.44252 8.97413 10.0834 11 10.0834ZM19.25 15.5834H20.1666V20.1667H12.8333V15.5834H13.75V14.6667C13.75 13.9373 14.0397 13.2379 14.5554 12.7221C15.0711 12.2064 15.7706 11.9167 16.5 11.9167C17.2293 11.9167 17.9288 12.2064 18.4445 12.7221C18.9602 13.2379 19.25 13.9373 19.25 14.6667V15.5834ZM17.4166 15.5834V14.6667C17.4166 14.4236 17.3201 14.1904 17.1481 14.0185C16.9762 13.8466 16.7431 13.75 16.5 13.75C16.2568 13.75 16.0237 13.8466 15.8518 14.0185C15.6799 14.1904 15.5833 14.4236 15.5833 14.6667V15.5834H17.4166Z"/>
        </g>
        <defs>
            <clipPath id="clip0_368_880__admin">
                <rect width="22" height="22"/>
            </clipPath>
        </defs>
    </symbol>
    <symbol id="connections" width="22" height="22" viewBox="0 0 22 22" xmlns="http://www.w3.org/2000/svg">
        <g clip-path="url(#clip0_368_875__connections)">
            <path d="M11.9717 7.43415L13.2687 8.73124C13.8647 9.32709 14.3374 10.0345 14.6599 10.813C14.9824 11.5916 15.1484 12.426 15.1484 13.2687C15.1484 14.1114 14.9824 14.9459 14.6599 15.7244C14.3374 16.503 13.8647 17.2104 13.2687 17.8062L12.9442 18.1298C11.7408 19.3332 10.1086 20.0093 8.40674 20.0093C6.70485 20.0093 5.07266 19.3332 3.86924 18.1298C2.66582 16.9264 1.98975 15.2942 1.98975 13.5923C1.98975 11.8904 2.66582 10.2582 3.86924 9.05482L5.16632 10.3519C4.73766 10.7768 4.39715 11.2822 4.16434 11.8391C3.93153 12.396 3.811 12.9934 3.80968 13.5969C3.80836 14.2005 3.92627 14.7984 4.15664 15.3563C4.38701 15.9142 4.7253 16.4211 5.1521 16.8479C5.5789 17.2747 6.08579 17.613 6.64368 17.8433C7.20157 18.0737 7.79946 18.1916 8.40304 18.1903C9.00662 18.189 9.604 18.0684 10.1609 17.8356C10.7177 17.6028 11.2232 17.2623 11.6481 16.8337L11.9726 16.5092C12.8318 15.6497 13.3145 14.4841 13.3145 13.2687C13.3145 12.0534 12.8318 10.8878 11.9726 10.0283L10.6755 8.73124L11.9726 7.43507L11.9717 7.43415ZM18.1298 12.9442L16.8337 11.6481C17.2623 11.2231 17.6028 10.7177 17.8356 10.1609C18.0685 9.60399 18.189 9.00662 18.1903 8.40304C18.1916 7.79946 18.0737 7.20156 17.8433 6.64367C17.613 6.08579 17.2747 5.57889 16.8479 5.1521C16.4211 4.7253 15.9142 4.38701 15.3563 4.15664C14.7984 3.92627 14.2005 3.80836 13.5969 3.80968C12.9934 3.811 12.396 3.93153 11.8391 4.16434C11.2822 4.39715 10.7768 4.73766 10.3519 5.16632L10.0274 5.49082C9.16816 6.35032 8.68547 7.5159 8.68547 8.73124C8.68547 9.94657 9.16816 11.1122 10.0274 11.9717L11.3245 13.2687L10.0274 14.5649L8.73124 13.2687C8.13533 12.6729 7.66262 11.9655 7.34011 11.1869C7.0176 10.4084 6.85161 9.57394 6.85161 8.73124C6.85161 7.88853 7.0176 7.05408 7.34011 6.27554C7.66262 5.49699 8.13533 4.78959 8.73124 4.19374L9.05574 3.87016C10.2592 2.66674 11.8913 1.99066 13.5932 1.99066C15.2951 1.99066 16.9273 2.66674 18.1307 3.87016C19.3342 5.07358 20.0102 6.70576 20.0102 8.40765C20.0102 10.1095 19.3342 11.7417 18.1307 12.9452L18.1298 12.9442Z"/>
        </g>
        <defs>
            <clipPath id="clip0_368_875__connections">
                <rect width="22" height="22"/>
            </clipPath>
        </defs>
    </symbol>
    <symbol id="dashboard" width="22" height="23" viewBox="0 0 22 23" xmlns="http://www.w3.org/2000/svg">
        <g clip-path="url(#clip0_3299_194__dashboard)">
            <path d="M10.9987 1.92285C16.0614 1.92285 20.1654 6.02677 20.1654 11.0895C20.1654 16.1523 16.0614 20.2562 10.9987 20.2562C5.93595 20.2562 1.83203 16.1523 1.83203 11.0895C1.83203 6.02677 5.93595 1.92285 10.9987 1.92285ZM10.9987 3.75618C6.94886 3.75618 3.66536 7.03968 3.66536 11.0895C3.66536 15.1394 6.94886 18.4229 10.9987 18.4229C15.0485 18.4229 18.332 15.1394 18.332 11.0895C18.332 7.03968 15.0485 3.75618 10.9987 3.75618ZM10.9987 4.67285C11.9319 4.67285 12.8183 4.87177 13.6185 5.23018L12.1858 6.66202C11.8072 6.56118 11.4094 6.50618 10.9987 6.50618C8.46778 6.50618 6.41536 8.5586 6.41536 11.0895C6.41536 12.3545 6.9287 13.5004 7.75736 14.3309L6.4612 15.627L6.3182 15.4794C5.24203 14.3318 4.58203 12.7872 4.58203 11.0895C4.58203 7.54568 7.45486 4.67285 10.9987 4.67285ZM16.858 8.4706C17.2155 9.26993 17.4154 10.1573 17.4154 11.0895C17.4154 12.8614 16.6967 14.4656 15.5362 15.627L14.24 14.3309C15.0687 13.5004 15.582 12.3545 15.582 11.0895C15.582 10.6789 15.5279 10.281 15.4262 9.90243L16.858 8.4706ZM14.8872 5.90393L16.1843 7.2001L12.7706 10.6156C12.8109 10.7669 12.832 10.9254 12.832 11.0895C12.832 12.1024 12.0116 12.9229 10.9987 12.9229C9.98578 12.9229 9.16536 12.1024 9.16536 11.0895C9.16536 10.0766 9.98578 9.25618 10.9987 9.25618C11.1628 9.25618 11.3214 9.27727 11.4726 9.3176L14.8881 5.90393H14.8872Z"/>
        </g>
        <defs>
            <clipPath id="clip0_3299_194__dashboard">
                <rect width="22" height="22" transform="translate(0 0.0893555)"/>
            </clipPath>
        </defs>
    </symbol>
    <symbol id="manage" width="22" height="22" viewBox="0 0 22 22" xmlns="http://www.w3.org/2000/svg">
        <g clip-path="url(#clip0_368_865__manage)">
            <path d="M2.75 15.5833H19.25V17.4166H2.75V15.5833ZM2.75 10.0833H5.5V12.8333H2.75V10.0833ZM7.33333 10.0833H10.0833V12.8333H7.33333V10.0833ZM2.75 4.58331H5.5V7.33331H2.75V4.58331ZM11.9167 4.58331H14.6667V7.33331H11.9167V4.58331ZM16.5 4.58331H19.25V7.33331H16.5V4.58331ZM11.9167 10.0833H14.6667V12.8333H11.9167V10.0833ZM16.5 10.0833H19.25V12.8333H16.5V10.0833ZM7.33333 4.58331H10.0833V7.33331H7.33333V4.58331Z"/>
        </g>
        <defs>
            <clipPath id="clip0_368_865__manage">
                <rect width="22" height="22"/>
            </clipPath>
        </defs>
    </symbol>
    <symbol id="monitor" width="22" height="22" viewBox="0 0 22 22" xmlns="http://www.w3.org/2000/svg">
        <g clip-path="url(#clip0_368_870__monitor)">
            <path d="M11 18.3333C12.945 18.3333 14.8102 17.5607 16.1855 16.1854C17.5608 14.8102 18.3334 12.9449 18.3334 11C18.3334 9.05506 17.5608 7.1898 16.1855 5.81453C14.8102 4.43926 12.945 3.66665 11 3.66665C9.05512 3.66665 7.18986 4.43926 5.81459 5.81453C4.43932 7.1898 3.66671 9.05506 3.66671 11C3.66671 12.9449 4.43932 14.8102 5.81459 16.1854C7.18986 17.5607 9.05512 18.3333 11 18.3333ZM11 20.1666C5.93729 20.1666 1.83337 16.0627 1.83337 11C1.83337 5.93723 5.93729 1.83331 11 1.83331C16.0628 1.83331 20.1667 5.93723 20.1667 11C20.1667 16.0627 16.0628 20.1666 11 20.1666ZM11 14.6666C11.9725 14.6666 12.9051 14.2803 13.5928 13.5927C14.2804 12.9051 14.6667 11.9724 14.6667 11C14.6667 10.0275 14.2804 9.09489 13.5928 8.40725C12.9051 7.71962 11.9725 7.33331 11 7.33331C10.0276 7.33331 9.09495 7.71962 8.40732 8.40725C7.71968 9.09489 7.33337 10.0275 7.33337 11C7.33337 11.9724 7.71968 12.9051 8.40732 13.5927C9.09495 14.2803 10.0276 14.6666 11 14.6666ZM11 16.5C9.54135 16.5 8.1424 15.9205 7.11095 14.8891C6.0795 13.8576 5.50004 12.4587 5.50004 11C5.50004 9.54129 6.0795 8.14234 7.11095 7.11089C8.1424 6.07944 9.54135 5.49998 11 5.49998C12.4587 5.49998 13.8577 6.07944 14.8891 7.11089C15.9206 8.14234 16.5 9.54129 16.5 11C16.5 12.4587 15.9206 13.8576 14.8891 14.8891C13.8577 15.9205 12.4587 16.5 11 16.5ZM11 12.8333C10.5138 12.8333 10.0475 12.6402 9.70368 12.2963C9.35986 11.9525 9.16671 11.4862 9.16671 11C9.16671 10.5137 9.35986 10.0474 9.70368 9.70362C10.0475 9.3598 10.5138 9.16665 11 9.16665C11.4863 9.16665 11.9526 9.3598 12.2964 9.70362C12.6402 10.0474 12.8334 10.5137 12.8334 11C12.8334 11.4862 12.6402 11.9525 12.2964 12.2963C11.9526 12.6402 11.4863 12.8333 11 12.8333Z"/>
        </g>
        <defs>
            <clipPath id="clip0_368_870__monitor">
                <rect width="22" height="22"/>
            </clipPath>
        </defs>
    </symbol>
</svg>